<svg width="23" height="23" viewBox="0 0 23 23" fill="none" xmlns="http://www.w3.org/2000/svg">
<g clip-path="url(#clip0_6_60)">
<path d="M13.1112 11.7041L1.798 22.598C1.26822 22.2359 0.953678 21.6337 0.95924 20.992V2.41623C0.953678 1.77459 1.26822 1.17236 1.798 0.810303L13.1112 11.7041Z" fill="#2196F3"/>
<path d="M17.0698 7.89897L13.1112 11.7041L1.798 0.810305C1.84063 0.777269 1.88503 0.746534 1.93096 0.718245C2.52888 0.355852 3.27572 0.344152 3.88471 0.687558L17.0698 7.89897Z" fill="#4CAF50"/>
<path d="M21.8672 11.7041C21.8746 12.4285 21.481 13.0975 20.8443 13.443L17.0698 15.5093L13.1112 11.7041L17.0698 7.89893L20.8443 9.96516C21.481 10.3107 21.8746 10.9797 21.8672 11.7041Z" fill="#F0BB1F"/>
<path d="M17.0698 15.5093L3.88471 22.7207C3.27438 23.0588 2.53037 23.0471 1.93096 22.69C1.88503 22.6617 1.84063 22.631 1.798 22.5979L13.1112 11.7041L17.0698 15.5093Z" fill="#F15A2B"/>
</g>
<defs>
<clipPath id="clip0_6_60">
<rect width="22.5283" height="22.5283" fill="white" transform="translate(0.149078 0.437988)"/>
</clipPath>
</defs>
</svg>
