<svg width="15" height="19" viewBox="0 0 15 19" fill="none" xmlns="http://www.w3.org/2000/svg">
<path d="M4.90208 18.4955C2.21977 18.48 0.00100708 13.0045 0.00100708 10.216C0.00100708 5.66088 3.4181 4.66365 4.73502 4.66365C5.3285 4.66365 5.96222 4.89671 6.52116 5.10295C6.91203 5.24682 7.31627 5.39533 7.5411 5.39533C7.67567 5.39533 7.99279 5.26899 8.27278 5.15815C8.86988 4.92044 9.6129 4.625 10.4781 4.625C10.4797 4.625 10.4818 4.625 10.4833 4.625C11.1293 4.625 13.0882 4.76679 14.2659 6.5354L14.5418 6.94996L14.1448 7.24955C13.5776 7.67752 12.5427 8.4582 12.5427 10.0046C12.5427 11.8361 13.7147 12.5405 14.2778 12.8792C14.5264 13.0288 14.7836 13.1829 14.7836 13.5202C14.7836 13.7403 13.0264 18.4682 10.4745 18.4682C9.85008 18.4682 9.4087 18.2805 9.01938 18.115C8.62545 17.9474 8.28563 17.803 7.72411 17.803C7.43948 17.803 7.07955 17.9376 6.6985 18.0804C6.17778 18.2748 5.58839 18.4955 4.91961 18.4955H4.90208Z" fill="white"/>
<path d="M10.7485 0.4729C10.815 2.86921 9.10123 4.53166 7.38949 4.4274C7.10743 2.51506 9.10102 0.4729 10.7485 0.4729Z" fill="white"/>
</svg>
